<svg width="52" height="100" viewBox="0 0 52 100" fill="none" xmlns="http://www.w3.org/2000/svg">
<circle cx="6" cy="28" r="6" transform="rotate(-90 6 28)" fill="#99F3FF"/>
<circle cx="6" cy="50" r="6" transform="rotate(-90 6 50)" fill="#99F3FF"/>
<circle cx="6" cy="72" r="6" transform="rotate(-90 6 72)" fill="#99F3FF"/>
<circle cx="6" cy="94" r="6" transform="rotate(-90 6 94)" fill="#99F3FF"/>
<circle cx="26" cy="72" r="6" transform="rotate(-90 26 72)" fill="#99F3FF"/>
<circle cx="46" cy="72" r="6" transform="rotate(-90 46 72)" fill="#99F3FF"/>
<circle cx="26" cy="94" r="6" transform="rotate(-90 26 94)" fill="#99F3FF"/>
<circle cx="46" cy="94" r="6" transform="rotate(-90 46 94)" fill="#99F3FF"/>
<circle cx="26" cy="50" r="6" transform="rotate(-90 26 50)" fill="#99F3FF"/>
<circle cx="46" cy="50" r="6" transform="rotate(-90 46 50)" fill="#99F3FF"/>
<circle cx="26" cy="28" r="6" transform="rotate(-90 26 28)" fill="#99F3FF"/>
<circle cx="46" cy="28" r="6" transform="rotate(-90 46 28)" fill="#99F3FF"/>
<circle cx="26" cy="6" r="6" transform="rotate(-90 26 6)" fill="#99F3FF"/>
<circle cx="46" cy="6" r="6" transform="rotate(-90 46 6)" fill="#99F3FF"/>
<circle cx="6" cy="6" r="6" transform="rotate(-90 6 6)" fill="#99F3FF"/>
</svg>
